<svg width="235" height="197" viewBox="0 0 235 197" fill="none" xmlns="http://www.w3.org/2000/svg">
<path d="M199.5 71.5C271 64.5 213 -29.5 176.5 25.5L179 28C217.5 14 221.5 56.5 199 68.5L199.5 71.5Z" fill="currentColor"/>
<path d="M33.962 71.5C-37.538 64.5 20.462 -29.5 56.962 25.5L54.462 28C15.962 14 11.962 56.5 34.462 68.5L33.962 71.5Z" fill="currentColor"/>
<path d="M201 85C201 38.0558 163.168 0 116.5 0C69.8319 0 32 38.0558 32 85C32 131.944 69.8319 170 116.5 170C120.139 170 123.724 169.769 127.241 169.32C124.634 166.776 121.5 162 120 158.918C118.84 158.972 117.673 159 116.5 159C75.9071 159 43 125.869 43 85C43 44.1309 75.9071 11 116.5 11C157.093 11 190 44.1309 190 85C190 90.4937 189.628 95.3476 188.5 100.5C191 103.5 194 106.5 197.5 108.5C199.723 100.889 201 93.3346 201 85Z" fill="currentColor"/>
<path d="M103 22C82.5 22 72 37.5 72 46V51C72 68 94 91 113 91H120C139 91 161 68 161 51V46C161 37.5 150.5 22 130 22H103Z" fill="currentColor"/>
<path d="M110 110H122.481C123.308 110 123.784 110.955 123.316 111.638C116.723 121.256 115.597 131.869 115.506 139.412C115.499 139.998 114.994 140.457 114.41 140.397C91.9644 138.119 75.4603 126.31 73 114.5C71.5 107.3 75.5 102.5 85 103.5C92 104 100 109.5 110 110Z" fill="currentColor"/>
<path fill-rule="evenodd" clip-rule="evenodd" d="M161 98C182.539 98 200 115.461 200 137C200 144.732 197.381 152.438 193.5 158.5L218 184C221 191 212 199 206.5 196L181.5 170.184C175.544 173.871 168.52 176 161 176C139.461 176 122 158.539 122 137C122 115.461 139.461 98 161 98ZM132 137C132 120.984 144.984 108 161 108C177.016 108 190 120.984 190 137C190 153.016 177.016 166 161 166C144.984 166 132 153.016 132 137Z" fill="currentColor"/>
<path d="M140.5 135C140.5 127 146.5 119 153 117.5" stroke="currentColor" stroke-width="5.5" stroke-linecap="round"/>
</svg>
